HIERARCHY
ROOT Hips
{
	OFFSET -14.64140 90.27770 -84.91600
	CHANNELS 6 Xposition Yposition Zposition Zrotation Xrotation Yrotation
	JOINT Spine
	{
		OFFSET 0.00000 13.20850 -1.60436
		CHANNELS 3 Zrotation Xrotation Yrotation
		JOINT Spine1
		{
			OFFSET 0.00000 8.61716 0.00000
			CHANNELS 3 Zrotation Xrotation Yrotation
			JOINT Spine2
			{
				OFFSET 0.00000 8.61717 0.00000
				CHANNELS 3 Zrotation Xrotation Yrotation
				JOINT Spine3
				{
					OFFSET 0.00000 8.61717 0.00000
					CHANNELS 3 Zrotation Xrotation Yrotation
					JOINT Neck
					{
						OFFSET 0.00000 11.07920 1.10792
						CHANNELS 3 Zrotation Xrotation Yrotation
						JOINT Neck1
						{
							OFFSET 0.00000 7.08032 0.00000
							CHANNELS 3 Zrotation Xrotation Yrotation
							JOINT Head
							{
								OFFSET 0.00000 7.08031 0.00000
								CHANNELS 3 Zrotation Xrotation Yrotation
								End site
								{
									OFFSET 0.00000 0.00000 0.00000
								}
							}
						}
					}
					JOINT RightShoulder
					{
						OFFSET -0.01000 7.91373 5.19711
						CHANNELS 3 Zrotation Xrotation Yrotation
						JOINT RightArm
						{
							OFFSET -18.41580 0.00000 0.00000
							CHANNELS 3 Zrotation Xrotation Yrotation
							JOINT RightForeArm
							{
								OFFSET -29.11090 0.00000 0.00000
								CHANNELS 3 Zrotation Xrotation Yrotation
								JOINT RightHand
								{
									OFFSET -24.65040 0.00000 0.00000
									CHANNELS 3 Zrotation Xrotation Yrotation
									JOINT RightHandThumb1
									{
										OFFSET -5.35114 -0.85590 3.97906
										CHANNELS 3 Zrotation Xrotation Yrotation
										JOINT RightHandThumb2
										{
											OFFSET -4.52789 0.00000 0.00000
											CHANNELS 3 Zrotation Xrotation Yrotation
											JOINT RightHandThumb3
											{
												OFFSET -2.46976 0.00000 0.00000
												CHANNELS 3 Zrotation Xrotation Yrotation
												End site
												{
													OFFSET 0.00000 0.00000 0.00000
												}
											}
										}
									}
									JOINT RightHandIndex1
									{
										OFFSET -14.26970 0.00000 2.88139
										CHANNELS 3 Zrotation Xrotation Yrotation
										JOINT RightHandIndex2
										{
											OFFSET -5.48836 0.00000 0.00000
											CHANNELS 3 Zrotation Xrotation Yrotation
											JOINT RightHandIndex3
											{
												OFFSET -3.01859 0.00000 0.00000
												CHANNELS 3 Zrotation Xrotation Yrotation
												End site
												{
													OFFSET 0.00000 0.00000 0.00000
												}
											}
										}
									}
									JOINT RightHandMiddle1
									{
										OFFSET -14.26970 0.00000 -0.09147
										CHANNELS 3 Zrotation Xrotation Yrotation
										JOINT RightHandMiddle2
										{
											OFFSET -6.17441 0.00000 0.00000
											CHANNELS 3 Zrotation Xrotation Yrotation
											JOINT RightHandMiddle3
											{
												OFFSET -3.56743 0.00000 0.00000
												CHANNELS 3 Zrotation Xrotation Yrotation
												End site
												{
													OFFSET 0.00000 0.00000 0.00000
												}
											}
										}
									}
									JOINT RightHandRing1
									{
										OFFSET -12.69180 0.00000 -3.06433
										CHANNELS 3 Zrotation Xrotation Yrotation
										JOINT RightHandRing2
										{
											OFFSET -5.62556 0.00000 0.00000
											CHANNELS 3 Zrotation Xrotation Yrotation
											JOINT RightHandRing3
											{
												OFFSET -3.56744 0.00000 0.00000
												CHANNELS 3 Zrotation Xrotation Yrotation
												End site
												{
													OFFSET 0.00000 0.00000 0.00000
												}
											}
										}
									}
									JOINT RightHandPinky1
									{
										OFFSET -11.11390 0.00000 -6.03719
										CHANNELS 3 Zrotation Xrotation Yrotation
										JOINT RightHandPinky2
										{
											OFFSET -4.52789 0.00000 0.00000
											CHANNELS 3 Zrotation Xrotation Yrotation
											JOINT RightHandPinky3
											{
												OFFSET -2.46976 0.00000 0.00000
												CHANNELS 3 Zrotation Xrotation Yrotation
												End site
												{
													OFFSET 0.00000 0.00000 0.00000
												}
											}
										}
									}
								}
							}
						}
					}
					JOINT LeftShoulder
					{
						OFFSET 0.01000 7.91373 5.19711
						CHANNELS 3 Zrotation Xrotation Yrotation
						JOINT LeftArm
						{
							OFFSET 18.41580 0.00000 0.00000
							CHANNELS 3 Zrotation Xrotation Yrotation
							JOINT LeftForeArm
							{
								OFFSET 29.11090 0.00000 0.00000
								CHANNELS 3 Zrotation Xrotation Yrotation
								JOINT LeftHand
								{
									OFFSET 24.65040 0.00000 0.00000
									CHANNELS 3 Zrotation Xrotation Yrotation
									JOINT LeftHandThumb1
									{
										OFFSET 5.35114 -0.85590 3.97906
										CHANNELS 3 Zrotation Xrotation Yrotation
										JOINT LeftHandThumb2
										{
											OFFSET 4.52789 0.00000 0.00000
											CHANNELS 3 Zrotation Xrotation Yrotation
											JOINT LeftHandThumb3
											{
												OFFSET 2.46977 0.00000 0.00000
												CHANNELS 3 Zrotation Xrotation Yrotation
												End site
												{
													OFFSET 0.00000 0.00000 0.00000
												}
											}
										}
									}
									JOINT LeftHandIndex1
									{
										OFFSET 14.26970 0.00000 2.88139
										CHANNELS 3 Zrotation Xrotation Yrotation
										JOINT LeftHandIndex2
										{
											OFFSET 5.48836 0.00000 0.00000
											CHANNELS 3 Zrotation Xrotation Yrotation
											JOINT LeftHandIndex3
											{
												OFFSET 3.01859 0.00000 0.00000
												CHANNELS 3 Zrotation Xrotation Yrotation
												End site
												{
													OFFSET 0.00000 0.00000 0.00000
												}
											}
										}
									}
									JOINT LeftHandMiddle1
									{
										OFFSET 14.26970 0.00000 -0.09147
										CHANNELS 3 Zrotation Xrotation Yrotation
										JOINT LeftHandMiddle2
										{
											OFFSET 6.17440 0.00000 0.00000
											CHANNELS 3 Zrotation Xrotation Yrotation
											JOINT LeftHandMiddle3
											{
												OFFSET 3.56744 0.00000 0.00000
												CHANNELS 3 Zrotation Xrotation Yrotation
												End site
												{
													OFFSET 0.00000 0.00000 0.00000
												}
											}
										}
									}
									JOINT LeftHandRing1
									{
										OFFSET 12.69180 0.00000 -3.06433
										CHANNELS 3 Zrotation Xrotation Yrotation
										JOINT LeftHandRing2
										{
											OFFSET 5.62556 0.00000 0.00000
											CHANNELS 3 Zrotation Xrotation Yrotation
											JOINT LeftHandRing3
											{
												OFFSET 3.56744 0.00000 0.00000
												CHANNELS 3 Zrotation Xrotation Yrotation
												End site
												{
													OFFSET 0.00000 0.00000 0.00000
												}
											}
										}
									}
									JOINT LeftHandPinky1
									{
										OFFSET 11.11390 0.00000 -6.03719
										CHANNELS 3 Zrotation Xrotation Yrotation
										JOINT LeftHandPinky2
										{
											OFFSET 4.52789 0.00000 0.00000
											CHANNELS 3 Zrotation Xrotation Yrotation
											JOINT LeftHandPinky3
											{
												OFFSET 2.46976 0.00000 0.00000
												CHANNELS 3 Zrotation Xrotation Yrotation
												End site
												{
													OFFSET 0.00000 0.00000 0.00000
												}
											}
										}
									}
								}
							}
						}
					}
					JOINT pCube4
					{
						OFFSET 0.00000 10.91090 1.10792
						CHANNELS 3 Zrotation Xrotation Yrotation
						End site
						{
							OFFSET 0.00000 0.00000 0.00000
						}
					}
				}
			}
		}
	}
	JOINT RightUpLeg
	{
		OFFSET -9.98441 0.00000 0.00000
		CHANNELS 3 Zrotation Xrotation Yrotation
		JOINT RightLeg
		{
			OFFSET 0.00000 -42.11790 0.00000
			CHANNELS 3 Zrotation Xrotation Yrotation
			JOINT RightFoot
			{
				OFFSET 0.00000 -45.00020 -0.00001
				CHANNELS 3 Zrotation Xrotation Yrotation
				JOINT RightForeFoot
				{
					OFFSET 0.00000 -3.74820 0.00000
					CHANNELS 3 Zrotation Xrotation Yrotation
					JOINT RightToeBase
					{
						OFFSET 0.00000 0.06325 14.43120
						CHANNELS 3 Zrotation Xrotation Yrotation
						End site
						{
							OFFSET 0.00000 0.00000 0.00000
						}
					}
				}
			}
		}
	}
	JOINT LeftUpLeg
	{
		OFFSET 9.98441 0.00000 0.00000
		CHANNELS 3 Zrotation Xrotation Yrotation
		JOINT LeftLeg
		{
			OFFSET 0.00000 -42.11800 0.00000
			CHANNELS 3 Zrotation Xrotation Yrotation
			JOINT LeftFoot
			{
				OFFSET 0.00000 -45.00070 0.00000
				CHANNELS 3 Zrotation Xrotation Yrotation
				JOINT LeftForeFoot
				{
					OFFSET 0.00000 -3.74824 0.00000
					CHANNELS 3 Zrotation Xrotation Yrotation
					JOINT LeftToeBase
					{
						OFFSET 0.00000 0.06325 14.43110
						CHANNELS 3 Zrotation Xrotation Yrotation
						End site
						{
							OFFSET 0.00000 0.00000 0.00000
						}
					}
				}
			}
		}
	}
}
MOTION
Frames: 4
Frame Time: 0.050000
-0.00995088422911327 -0.04071273813470449 0.026738616028364443 0.026362769498739766 -0.027635786059493312 0.021694544214622784 -3.442441872085656 -0.6524257343471589 -0.6120045346789518 -1.1604563913822352 3.779685427292495 0.3529962982672711 -1.3954111552023647 -1.9129635243927323 -0.9624395194276283 0.08432240554605407 0.5364075351780964 -0.8656709577991111 0.06645639396330992 12.484378033591272 0.3951290861536179 0.2335834285791973 -0.11816136707287458 -0.981092222610622 0.3329267915008266 -14.939676755855995 -0.07825604826844418 -4.962279154835972 1.6301168058510251 -13.987517626315082 64.50053452236848 21.288099580498955 12.818313243176046 5.726947967863607 2.148978814987581 62.45666824706553 15.443709889614244 -0.21906645263631644 -2.613378144111859 4.481088577773388 -0.1210406543005047 -1.592528384643333 0.026113575289254887 -0.006427830379599129 -56.187140501453186 -0.02567310798154171 -0.036424087147043614 -56.20343756224565 -38.755431396146534 0.020237852404064536 0.0018240759610756976 -0.04730003004538623 0.02122529114064393 0.014181179247681154 0.002493389094399806 -0.023863967869056906 -0.028677930320351038 -36.69830618764653 -0.043212667631515815 0.01307091730590924 -0.031285660761698746 -0.03773144229266752 0.034283978303457883 0.0039491160010048515 -0.014827938285341995 0.006861584551688912 -19.78926662709505 0.019250150903183612 -0.001015304980460994 0.01026906347220128 0.030883330303687406 0.0376092244217179 -0.04273540164976447 0.04542872696207271 -0.018435098563828307 24.05842027444352 -0.014058611218582661 -0.033489206906879516 28.911394578784186 0.028612926161355724 -0.010758072188915061 28.902084984176565 0.013625908593899965 -0.03216064684120927 5.3689664876638155 1.202812610667656 12.513152636826577 -70.1419965971225 28.013652706456565 -10.966611990270513 -44.820885299562924 3.012750697576784 -80.33969313541199 -5.57013313531544 0.6527265844576143 -0.632197156954945 -0.4701530852318505 0.047302551911002695 -8.15450287710038 -0.028015644418710985 -0.009854889822898442 44.59525276845126 0.03841696682496462 0.01293956221933091 44.5718886825439 12.42121683340107 0.040578222133185626 -0.041013143819982084 -0.030185077826855807 -0.013269148598070109 -0.015519073004866317 0.00923453007272125 -0.016450530102263095 -0.046872003827338575 11.149340976255331 0.02796019771601304 -0.0239196337982947 0.04984504173646413 0.022717728220918373 -0.004752616184871681 -0.03473110634649642 0.03371389416623845 -0.038296511432902365 4.770059969721755 -0.01621911004112857 -0.03692855406209972 -0.04456134364019609 0.03136711950196025 0.020992044313565515 0.008387674752749158 -0.012631133375034404 -0.0335874209899997 -5.584450975336867 -0.04585169926873891 0.009387333220515496 -6.688884246862124 -0.013560774968278566 0.044997083065362514 -6.693854115969481 -0.049996347094298295 -0.043540597958656876 -0.031166146853801507 -0.027062502395161975 -0.025395954939376044 8.049253639699005 3.4703980679510718 -19.269197398326888 0.0025493000938465234 10.34633565097316 0.0340036217019708 -5.588222766850663 -15.647894740861194 3.2179285892688103 0.009425314349895542 -0.044456603356095754 -0.04018193554785269 0.03523019699305844 4.705923972152006 -0.016426506389909667 12.452176510108645 -8.274084552348985 6.8457859068725 -0.031043750210522296 46.39126847487033 0.004524264359928825 -4.3120033725291815 -14.736283987308816 -3.8588560350945342 0.047754381311019195 -0.002682676137845422 0.038837200894439254 0.012266439431687511 -10.772687903183819 -0.03804382555620468 
0.02902858732583252 -0.031165451394498053 -0.04976257989117125 -0.017831970318285005 -0.012958700743303707 -0.0191805003781135 -3.4289751167892186 -0.6265678899227223 -0.6365050053743028 -1.0631589977631895 3.7582312555099424 0.38121635988512026 -1.3576970374334776 -1.9113866337790444 -0.9515650689733351 0.05261000293588308 0.5208530658489542 -0.8847266836880352 -0.006968005736832247 12.533545273397674 0.7299321734814299 0.25750671747598586 -0.06515528517401915 -0.15283934866684354 0.15846818379623828 -14.977629823660285 -0.02934096370467302 -4.838864196148116 1.6545914177402063 -13.897153515302447 65.10498718505076 22.029516983295657 11.990993180925113 5.926030165331353 2.529482964358517 62.738140457083155 15.542712178817409 -0.21859431406236185 -2.49972732224734 4.519982628449724 -0.08611706130845873 -1.6062746927165077 -0.048545069679287026 -0.038848504321140155 -56.22899269353017 0.0459100451924282 -0.0056206531770111 -56.189432450857566 -38.79036759033995 0.03544542801903216 0.03818183817504771 -0.03615474761784602 0.011094005107600051 -0.03345766537630332 -0.01117558959574417 -0.02649667457992721 -0.042415690004418555 -36.67432272054741 -0.010150797731855416 -0.03150961149235302 -0.016034581257971407 0.0444320771358893 0.01883825571089144 -0.00870601280084537 -0.04073949300474395 -0.037526797046415844 -19.779761289398305 -0.018859482639401015 -0.0019395678260662945 0.04600127366518246 0.016390978038310106 -0.018190477046300314 0.006080216184725421 -0.018573877307385415 0.014672857945495443 24.009381138131413 0.03405054783104821 0.0019323323402561487 28.820677490244513 0.009145111786751543 0.02120676942156596 28.851889698534027 -0.04200837748954513 0.0010577447369798899 5.588504344150565 1.182683170687014 12.605233454118348 -70.47593789737726 28.112052767947862 -10.9198339109941 -44.27858686582315 3.17318776888343 -80.26224448168418 -6.197149445996322 0.5119180107470745 -0.6513274136799755 -0.5041330064460865 0.10707427379153563 -8.0876421405795 0.030878907712847688 -0.034408714272554396 44.56151514781694 0.004462061147892222 -0.002378556693607691 44.58715565966714 12.46738075631452 -0.015384251976931778 0.006711716807032893 -0.046344222378012404 -0.039690868653981755 -0.044860984928342396 0.020638466657671238 -0.004034419359202701 -0.005662246254749697 11.060460665932704 0.04357922212704625 -0.03656392594957662 0.03458103412710057 0.02513228083399152 -0.03006319402293086 0.014626349523373577 -0.030910151032637573 0.021283748710980054 4.729114941847365 0.0054545993528172165 0.012428747257971518 0.017746397431590233 0.03478701654753301 0.008882805691425015 -0.020293853097778612 0.02837878899406746 0.009587659662297118 -5.59978404494343 -0.01751723843814601 -0.023908260690609324 -6.757491713137771 -0.012823108545296901 -0.008286759852177297 -6.726637877081137 0.04924217393814271 0.045000211916535734 0.010620110672409061 0.007730384979570639 0.004346698385542451 8.063471329970053 3.47653463034497 -19.217110106541316 0.0006290560837328676 10.430772635515853 0.032993754940508734 -5.612519515774354 -15.66346357359328 3.158859923470194 0.0036509224077343216 -0.003872378234525089 0.033982580808648785 0.0017246445331959464 4.716338198028188 0.04753940206626931 12.480753968903628 -8.278796949355522 6.841087120928511 5.0677180299445624e-05 46.399417081568174 -0.005104598780667898 -4.360984193029378 -14.713091155731552 -3.8452952905944904 0.028584998012229818 0.04558910852651764 0.011687947110624562 0.016183768541157776 -10.759183706778895 -0.008767365688396868 
-0.04657519244617066 0.019198916717762637 -0.016449187153381742 -0.030826609386395316 -0.0167208264998944 0.01704039542895067 -3.268236161769471 -0.5328314443699774 -0.6902095104780054 -1.053922035028271 3.7306354566046536 0.4001282904504288 -1.2918145144328415 -1.8815102733369524 -1.0418269757918779 -0.022622936242914584 0.5030775549933942 -0.8566089863339856 -0.23395919779075772 12.464773615992662 1.1019405103859308 0.19585460609695304 -0.18007770930951422 0.9254925674108264 0.07916530433058126 -15.081349752515122 0.1091570300811803 -4.509058989760345 1.5733527246948154 -14.076758753333825 67.36193865380436 23.318353887863694 9.17186451763906 5.519873363160204 3.16264447966415 60.22096780586421 16.4654664807614 -0.18018063384386848 -2.719750280222229 4.570147095948201 -0.13856846057457928 -1.5587210590691143 -0.044326783739546974 -0.03763007692481923 -56.194184915305264 0.027977746799496554 0.04218311544710028 -56.230523289097064 -38.772122687107405 0.02478156690571874 -0.020739868394328346 -0.02675549179397895 -0.012676919507092632 -0.030390003708252993 0.03601357616113741 -0.02647284269787287 0.012701010535810107 -36.709582444827234 0.021587046939593887 0.020426227539084036 -0.0017180881274182185 0.03934495418081661 0.015650418080270904 -0.04735491393044815 -0.00475664342745336 -0.01577991150406761 -19.763154551725673 -0.011064726814635752 -0.01894071621379065 -0.023995759256858318 -0.012514043527708275 0.04315570147329469 -0.0026234897265813004 -0.047291298834422034 -0.0111722506484307 24.073834933698283 0.005960692994634872 -0.04189679378233787 28.864052925997797 -0.02619204476526373 0.005578354343051763 28.87591851337966 0.021487567181766917 0.00633469351214724 5.925403499801211 1.3011445687812833 12.738175196696774 -71.1076196896932 28.16807614374749 -10.81967111406433 -43.55108720662043 3.7691617433251223 -80.05066676521265 -7.505019893406115 -0.24751467412761585 -0.17311433177086127 -0.5227607312700301 0.04767939078639617 -8.085249604587473 -0.04593430533792086 0.005276056144612155 44.523290880156914 0.03490919157954371 -0.016814408862575212 44.59540255583853 12.445520966843915 0.016747268998060224 -0.04716178380646548 -0.039928356664086555 -0.025531671200977414 -0.03574264009493681 -0.02792021220879542 -0.01829364350342311 0.02266405210605485 11.101927316833347 0.019138821151128155 -0.03263874061998142 -0.025005540846030013 -0.007716954578146534 -0.003294238112508995 0.02724865534101273 -0.01407970129438242 0.04058664364572416 4.7557217614562735 -0.02181692181894965 0.03276484081435666 0.031992835572902716 0.007601555222116565 -0.02665329633367404 -0.00813409832440201 -0.019931501858037628 -0.027800726239933408 -5.620834593571094 -0.042761149456066655 -0.007925235971756914 -6.728306766111973 -0.000513716755395007 0.022664855654196226 -6.674597467383901 0.0010074427584886737 0.008888310476253575 0.03825081432450329 -0.03540759085660128 0.016295256112623516 8.043971880239445 3.5195047893982387 -19.224210520175248 -0.008542323661570896 10.424352001748703 0.013460722408631455 -5.610061752351103 -15.654801588827423 3.160292504609461 -0.04770563965988572 -0.025938692400805374 -0.006276948801878779 -0.015497351700414531 4.67652799873008 -0.03860535372263792 12.410867551905248 -8.193153980444864 6.8729215379774775 0.02745581568051248 46.37143435660526 0.003324894995050547 -4.2778339343027625 -14.795501974140878 -3.8250586727937628 0.038276430868667145 0.02501846432351963 0.0007957987231315954 -0.04025697589423848 -10.739387009423444 0.020158294539959386 
-0.003454720887562396 0.01340358685420815 -0.0037132823565500734 -0.007288477884058709 0.014316912951807535 -0.015295358283697495 -3.2103982101304482 -0.2666105528517525 -0.7488586462535539 -1.0916053897470328 3.7430492808228624 0.38134810474896236 -1.2219369834307665 -1.8801779932264744 -1.2189193613981193 -0.0812312078643535 0.4910738543534792 -0.8414990990569687 -0.43488701213656605 12.362333790891315 1.4431029048361488 0.23053711147983347 -0.21293759022886832 2.0496952208232186 -0.09050065337133228 -15.195285123271809 0.18990323178737817 -4.121546503747147 1.5126644731008345 -14.288910455757902 70.1977095105721 25.076766175029825 5.932468225118102 4.819722971872618 3.710135024894987 56.17498916341569 18.015764501525933 -0.2537828522001752 -3.117307834373803 4.512408346003413 -0.10328141646092204 -1.5834320613155353 -0.023340039014443578 -0.013864362045359787 -56.284003693350584 0.014914262375680885 0.000708376384196809 -56.27047523476403 -38.81356607788803 0.01685872895227732 -0.010354121127549736 0.0008309896210176408 0.03119840120616195 -0.02963749105334071 0.018341630085629113 0.011887588020894426 0.028847611648994853 -36.706010782886544 0.04705646163261117 -0.04238833268228031 0.03840328137266466 -0.03005261231888318 -0.04047982565426189 -0.0054644113230212146 -0.007815620459097176 -0.030053425345785298 -19.75500862167246 0.041926418676820676 0.010176277070245984 0.047177826479812626 0.03022296590961947 0.009065297113178557 0.046745873939540834 0.008810849975979123 0.04574574303850822 24.078447251941054 -0.006121883857765363 -0.04458948096920617 28.8710684902879 0.02644586505918912 -0.0077828147600218734 28.871488117697993 -0.003099240655771712 0.01116392759247966 6.108619496466303 1.3836006187875682 12.93866990993905 -71.6585024638272 28.049767322344806 -10.627089181552138 -42.67088998880328 4.665829408632656 -79.20153438202958 -9.47527052109011 -1.4742684302824876 0.5275467488299934 -0.5028301565907596 0.05968921244693341 -8.105667390848414 -0.016860451598647738 -0.008236172978747226 44.57259200448512 -0.045438329000207146 -0.038181884257157676 44.57740016525796 12.411654169174628 -0.0038545838585613947 -0.006931557347691671 0.018105290891663257 0.042736618711127494 0.019876412137632454 0.01075306134850358 0.003537103947982589 -0.03711407838424831 11.100176376981194 -0.014661096408089708 0.014078306058685717 -0.020434699800481505 0.03170723539802446 -0.0051245756217473135 -0.012682371161809484 -0.0022007503963302273 -0.042778567438794476 4.733528794066037 0.007396496213506999 -0.028809787451123815 -0.04257506231582737 0.023907870423353433 -0.03619265423121769 0.0061242929699917405 0.03842231988254573 -0.01604803576354206 -5.585989181231393 -0.03251034466104532 -0.0319243185032354 -6.699365688241247 0.0038238985051447737 -0.0475446783374128 -6.73352628162354 0.009285857138862002 -0.045377118055826386 -0.005954472926931497 0.0006304461254779766 -0.01013619068030832 8.03950518907474 3.504472090235669 -19.20867514022971 0.04693114800743606 10.360369984011829 0.05494428479894692 -5.571920431526799 -15.611361177644136 3.194292169706333 0.046971458775020965 0.02988204697773706 -0.014471741886759313 -0.031271456449706206 4.69274542573631 0.01487548575045527 12.45220474141453 -8.2344698345653 6.919239438409038 0.03253283311194275 46.393980579641756 0.005008832935870738 -4.3421772430843175 -14.776602724097707 -3.8614545835839977 -0.012365383136485001 0.018609860071974366 0.02874796837567728 0.01810150164674472 -10.731317212139459 0.013802558883788446 
